<?xml version="1.0" encoding="utf-8"?>
<!-- Generator: Adobe Illustrator 24.2.1, SVG Export Plug-In . SVG Version: 6.00 Build 0)  -->
<svg version="1.1"
	 id="Layer_1" xmlns:cc="http://creativecommons.org/ns#" xmlns:dc="http://purl.org/dc/elements/1.1/" xmlns:inkscape="http://www.inkscape.org/namespaces/inkscape" xmlns:rdf="http://www.w3.org/1999/02/22-rdf-syntax-ns#" xmlns:sodipodi="http://sodipodi.sourceforge.net/DTD/sodipodi-0.dtd" xmlns:svg="http://www.w3.org/2000/svg"
	 xmlns="http://www.w3.org/2000/svg" xmlns:xlink="http://www.w3.org/1999/xlink" x="0px" y="0px" viewBox="0 0 84 56"
	 style="enable-background:new 0 0 84 56;" xml:space="preserve">
<style type="text/css">
	.st0{fill:#FFFFFF;}
</style>
<g transform="translate(0,-952.36218)">
	<g id="XMLID_1_">
		<g>
			<path class="st0" d="M70.8,978.3c6.6,1.1,11.2,7.5,11.2,14c0,7.8-6.3,14-16,14H18c-8.9,0-16-7.2-16-16c0-7.5,5.1-13.7,12.1-15.5
				c0.5-0.1,0.8-0.5,0.8-1c-0.1-9.9,7.9-19.5,19.2-19.5c8.2,0,14.2,4.8,17.1,10.4c0.2,0.5,0.9,0.7,1.4,0.4c3.7-1.9,8.1-1.6,11.6,0.5
				c3.5,2.1,6,6,6,11.7C70,977.8,70.4,978.3,70.8,978.3z"/>
			<path d="M34,952.4c8.6,0,15.1,4.8,18.4,10.8c4.1-1.7,8.8-1.5,12.6,0.8c3.9,2.3,6.7,6.7,6.9,12.6c7.2,1.6,12.1,8.6,12.1,15.8
				c0,8.9-7.4,16-18,16H18c-9.9,0-18-8.1-18-18c0-8.1,5.5-14.9,12.9-17.1C13.1,962.5,21.8,952.4,34,952.4z M51.1,964.8
				c-2.8-5.7-8.9-10.4-17.1-10.4c-11.3,0-19.3,9.6-19.2,19.5c0,0.5-0.3,0.9-0.8,1c-6.9,1.8-12.1,8-12.1,15.5c0,8.8,7.2,16,16,16h48
				c9.7,0,16-6.2,16-14c0-6.5-4.6-12.9-11.2-14c-0.5-0.1-0.8-0.5-0.8-1c0-5.7-2.5-9.6-6-11.7c-3.5-2.1-7.9-2.3-11.6-0.5
				C51.9,965.5,51.3,965.3,51.1,964.8z"/>
		</g>
		<g>
		</g>
	</g>
</g>
</svg>
